HIERARCHY
ROOT Hips
{
	OFFSET -0.179506 -22.333345 2.821913
	CHANNELS 6 Xposition Yposition Zposition Zrotation Yrotation Xrotation 
	JOINT LeftUpLeg
	{
		OFFSET 6.951974 -9.140623 -0.681533
		CHANNELS 3 Zrotation Yrotation Xrotation
		JOINT LeftLeg
		{
			OFFSET 3.427654 -37.519855 -0.449580
			CHANNELS 3 Zrotation Yrotation Xrotation
			JOINT LeftFoot
			{
				OFFSET -1.359570 -39.796059 -4.369333
				CHANNELS 3 Zrotation Yrotation Xrotation
				JOINT LeftToe
				{
					OFFSET 2.635814 -5.579078 11.928840
					CHANNELS 3 Zrotation Yrotation Xrotation
					End Site
					{
						OFFSET 0.000000 0.000000 0.000000
					}
				}
			}
		}
	}
	JOINT RightUpLeg
	{
		OFFSET -6.767048 -9.052170 -0.431982
		CHANNELS 3 Zrotation Yrotation Xrotation
		JOINT RightLeg
		{
			OFFSET -3.829005 -38.256897 -0.885003
			CHANNELS 3 Zrotation Yrotation Xrotation
			JOINT RightFoot
			{
				OFFSET 1.577377 -39.841461 -4.231180
				CHANNELS 3 Zrotation Yrotation Xrotation
				JOINT RightToe
				{
					OFFSET -2.537174 -4.814398 12.334795
					CHANNELS 3 Zrotation Yrotation Xrotation
					End Site
					{
						OFFSET 0.000000 0.000000 0.000000
					}
				}
			}
		}
	}
	JOINT Spine
	{
		OFFSET -0.253288 10.896323 -2.669631
		CHANNELS 3 Zrotation Yrotation Xrotation
		JOINT Spine1
		{
			OFFSET 0.548704 13.518043 0.109247
			CHANNELS 3 Zrotation Yrotation Xrotation
			JOINT Spine2
			{
				OFFSET 0.145701 5.292222 2.542457
				CHANNELS 3 Zrotation Yrotation Xrotation
				JOINT Neck
				{
					OFFSET -0.277840 21.387037 -4.285703
					CHANNELS 3 Zrotation Yrotation Xrotation
					JOINT Head
					{
						OFFSET 0.515184 6.496960 5.134897
						CHANNELS 3 Zrotation Yrotation Xrotation
						End Site
						{
							OFFSET 0.000000 0.000000 0.000000
						}
					}
				}
				JOINT LeftShoulder
				{
					OFFSET 7.884473 12.174932 -3.408961
					CHANNELS 3 Zrotation Yrotation Xrotation
					JOINT LeftArm
					{
						OFFSET 9.097692 3.046888 -0.886815
						CHANNELS 3 Zrotation Yrotation Xrotation
						JOINT LeftForeArm
						{
							OFFSET 25.961220 -1.277207 -2.745643
							CHANNELS 3 Zrotation Yrotation Xrotation
							JOINT LeftHand
							{
								OFFSET 24.923361 0.898606 -0.117091
								CHANNELS 3 Zrotation Yrotation Xrotation
								End Site
								{
									OFFSET 0.000000 0.000000 0.000000
								}
							}
						}
					}
				}
				JOINT RightShoulder
				{
					OFFSET -8.175920 11.883285 -3.861528
					CHANNELS 3 Zrotation Yrotation Xrotation
					JOINT RightArm
					{
						OFFSET -9.601238 3.255117 -0.914307
						CHANNELS 3 Zrotation Yrotation Xrotation
						JOINT RightForeArm
						{
							OFFSET -25.374195 -1.332924 -2.140099
							CHANNELS 3 Zrotation Yrotation Xrotation
							JOINT RightHand
							{
								OFFSET -25.529810 0.777228 -0.555919
								CHANNELS 3 Zrotation Yrotation Xrotation
								End Site
								{
									OFFSET 0.000000 0.000000 0.000000
								}
							}
						}
					}
				}
			}
		}
	}
}
MOTION
Frames: 11
Frame Time: 0.033333
-31.360249 -50.373791 93.967621 178.071469 0.721656 89.069541 6.783586 4.981623 2.107602 -5.197890 -2.708644 0.854131 5.173316 7.369865 -13.432281 nan nan nan -6.132766 -6.351852 3.389827 1.798314 -2.329497 0.118549 1.350962 -6.346287 -12.439856 nan nan nan -0.550452 3.268151 5.955031 1.425730 -1.258113 2.985149 0.845630 -0.093496 1.651108 3.230596 1.334934 2.437066 0.717671 -2.959946 8.460990 -27.122594 3.829720 7.166457 -56.432065 -3.008572 6.934894 7.384111 -22.788857 11.243483 -6.321257 -9.022791 -6.276908 27.146135 0.378979 5.476289 57.357112 6.388053 11.279559 -15.580247 26.125496 -3.159764 5.238742 5.759550 -5.077232 
-31.358349 -50.348999 93.963867 178.099667 0.756186 89.121180 6.828497 4.999538 2.024756 -5.192738 -2.693730 0.932943 5.057842 7.309052 -13.503579 nan nan nan -6.048778 -6.353395 3.408399 1.740110 -2.282876 0.016383 1.587244 -6.524812 -12.343770 nan nan nan -0.438142 3.171201 5.849501 1.343435 -1.203615 2.886593 0.832367 -0.030937 1.864436 3.320493 1.281072 2.178742 0.628464 -2.966767 8.671460 -27.039792 3.803450 7.167115 -56.411561 -3.104622 6.960466 7.270268 -22.748718 11.462568 -6.391887 -8.931372 -6.245907 27.100625 0.352746 5.444587 57.498137 6.381091 11.367191 -15.763495 26.142974 -3.265844 5.150516 5.799308 -5.106531 
-31.357025 -50.326653 93.956467 178.082392 0.748088 89.162038 6.841629 5.004689 1.973323 -5.247822 -2.687446 0.980638 5.036866 7.271275 -13.550392 nan nan nan -6.051059 -6.352255 3.367860 1.722639 -2.242311 0.045849 1.641079 -6.579564 -12.308364 nan nan nan -0.404915 3.146296 5.804386 1.326179 -1.159013 2.840870 0.814653 0.002716 1.909672 3.304004 1.274023 2.116517 0.616941 -2.992481 8.706238 -26.983633 3.799787 7.166939 -56.382081 -3.126851 6.993855 7.207507 -22.830746 11.639318 -6.396350 -9.005517 -6.253522 27.016830 0.327493 5.411744 57.603179 6.334589 11.431666 -15.897717 26.198651 -3.211677 5.143213 5.782399 -5.207616 
-31.363861 -50.298195 93.950790 178.091264 0.744150 89.153436 6.824614 4.972514 1.982789 -5.221602 -2.724927 0.997593 5.034344 7.289227 -13.635318 nan nan nan -6.057924 -6.352612 3.401625 1.700957 -2.235525 0.033743 1.726343 -6.557823 -12.322865 nan nan nan -0.343943 3.134562 5.786875 1.305840 -1.145913 2.827162 0.774368 0.015757 1.956428 3.299689 1.293086 2.063828 0.635006 -3.028018 8.738627 -26.949805 3.725939 7.196355 -56.370244 -3.153234 7.043666 7.239065 -22.902441 11.620523 -6.212186 -9.204466 -6.224322 26.966585 0.343594 5.398427 57.635813 6.306045 11.439919 -15.935942 26.220240 -3.223600 5.090079 5.798969 -5.350494 
-31.367474 -50.261456 93.956215 178.070303 0.743504 89.105283 6.823270 4.968170 2.074360 -5.224592 -2.746347 1.004287 4.991457 7.291173 -13.660305 nan nan nan -6.077890 -6.364510 3.499122 1.707132 -2.252246 -0.008027 1.780779 -6.491565 -12.301344 nan nan nan -0.320855 3.173293 5.769525 1.303492 -1.128945 2.876006 0.775794 0.047877 1.985345 3.316077 1.277408 2.068230 0.709644 -3.035995 8.682050 -26.904369 3.581869 7.246022 -56.413635 -3.209433 7.087880 7.276296 -22.863751 11.542651 -6.037602 -9.412060 -6.258836 26.922714 0.377989 5.432368 57.638421 6.311139 11.377186 -15.908336 26.149265 -3.268902 4.955408 5.834276 -5.485669 
-31.349693 -50.198208 93.994308 178.038463 0.799552 89.020528 6.946542 5.029110 2.222659 -5.299446 -2.750183 1.053658 5.132555 7.228202 -13.664619 nan nan nan -6.213698 -6.690413 3.556717 2.105354 -2.606776 0.225084 1.831892 -6.398170 -11.707391 nan nan nan -0.216047 3.257820 5.777788 1.264664 -1.152824 3.091058 0.810779 0.137651 1.728796 3.252213 1.160724 2.367104 0.918992 -2.875286 8.486565 -26.927783 3.296305 7.487850 -56.561615 -3.209202 6.954071 7.616928 -22.676963 11.455489 -6.068765 -10.127908 -6.517285 26.756481 0.445628 5.631743 57.763365 6.250706 11.139941 -15.896182 26.036324 -3.135763 4.935589 6.242472 -5.714198 
-31.332516 -50.166962 93.991112 177.973940 0.694941 89.097980 6.878646 4.951819 2.175944 -5.385597 -2.676889 1.068481 5.241546 7.279501 -13.678637 nan nan nan -6.305970 -6.578002 3.488523 2.081938 -2.565145 0.242925 1.975667 -6.533611 -11.647803 nan nan nan -0.325419 3.338936 5.686880 1.227436 -1.114797 3.106852 0.817659 0.102234 1.710313 3.322830 1.147739 2.327537 0.906168 -2.824224 8.502926 -26.845011 3.364742 7.472060 -56.614564 -3.278673 6.975027 7.689075 -22.693141 11.498080 -6.021763 -10.258931 -6.666001 26.675699 0.398763 5.669569 57.853727 6.256218 11.252568 -15.837100 26.051939 -3.061413 4.887982 6.254220 -5.835884 
-31.346813 -50.128445 93.975983 177.916017 0.627021 89.111704 6.806843 4.928010 2.179479 -5.415295 -2.669051 1.097462 5.283463 7.346026 -13.729395 nan nan nan -6.421703 -6.567671 3.468675 2.110592 -2.592357 0.296172 2.087934 -6.539248 -11.716657 nan nan nan -0.368053 3.345882 5.587522 1.212209 -1.106531 3.161846 0.820390 0.116747 1.789393 3.312286 1.172770 2.235519 0.864976 -2.793638 8.561316 -26.841184 3.434015 7.367659 -56.711418 -3.349942 6.972752 7.857293 -22.715631 11.420878 -5.852404 -10.264946 -6.646353 26.590227 0.397001 5.712824 57.962859 6.304158 11.291446 -15.897136 26.182747 -3.084403 4.758262 6.304813 -5.768767 
-31.368176 -50.096035 93.962830 177.935251 0.571634 89.140214 6.719902 4.937537 2.116841 -5.410440 -2.681182 1.171572 5.281663 7.380409 -13.778477 nan nan nan -6.523855 -6.584185 3.463996 2.137026 -2.623603 0.310647 2.195791 -6.524731 -11.799418 nan nan nan -0.426648 3.296091 5.485458 1.233405 -1.122305 3.173029 0.844778 0.144328 1.909058 3.261306 1.188096 2.123493 0.849083 -2.787844 8.626249 -26.920444 3.475485 7.262697 -56.745814 -3.428215 6.944877 8.081022 -22.759339 11.153114 -5.497754 -10.228724 -6.539567 26.539382 0.407077 5.694821 57.987246 6.331134 11.313214 -15.920027 26.259046 -3.137499 4.520249 6.330310 -5.612363 
-31.376186 -50.069870 93.948936 177.983145 0.518475 89.183620 6.639483 4.907565 2.045705 -5.387433 -2.622250 1.211310 5.288173 7.413372 -13.853736 nan nan nan -6.567117 -6.561408 3.455505 2.098475 -2.628865 0.280380 2.246880 -6.583400 -11.822371 nan nan nan -0.467430 3.263526 5.419094 1.225244 -1.142637 3.147338 0.846625 0.119504 1.982374 3.263701 1.201901 2.051197 0.844733 -2.790220 8.695600 -26.878772 3.541905 7.224294 -56.789198 -3.508673 6.907981 8.231229 -22.879636 10.829598 -5.248270 -10.290425 -6.775275 26.507949 0.389947 5.637345 57.992487 6.389992 11.414591 -15.869365 26.219415 -3.102771 4.289898 6.328946 -5.606436 
-31.379461 -50.037388 93.943672 177.977519 0.504733 89.168295 6.631502 4.886254 2.088714 -5.409494 -2.573644 1.194565 5.293969 7.445297 -13.909153 nan nan nan -6.584362 -6.538313 3.475826 2.081422 -2.661765 0.313320 2.330061 -6.551628 -11.842066 nan nan nan -0.477172 3.252791 5.402925 1.228358 -1.118156 3.138360 0.839997 0.105833 2.038460 3.275485 1.166391 1.999940 0.825592 -2.776991 8.703636 -26.838511 3.585322 7.233796 -56.856185 -3.586895 6.847623 8.463118 -23.039895 10.470894 -5.142755 -10.404656 -7.122468 26.510635 0.374373 5.546454 57.948394 6.416517 11.505556 -15.810947 26.161894 -2.984786 4.227731 6.317282 -5.603103 
